<?xml version="1.0" encoding="UTF-8"?>
<svg id="Layer_1" data-name="Layer 1" xmlns="http://www.w3.org/2000/svg" viewBox="0 0 748.25 488.72">
  <defs>
    <style>
      .cls-1 {
        fill: #06aff6;
      }

      .cls-2 {
        fill: #0d0d0d;
      }
    </style>
  </defs>
  <g>
    <path class="cls-2" d="m32.52,488.72l81.31-163.81h46.26l81.31,163.81h-44.83l-14.31-29.57h-93.23l-14.31,29.57h-42.2Zm71.53-61.28h63.19l-17.41-37.44c-.64-1.59-1.67-3.97-3.1-7.15-1.43-3.18-2.82-6.44-4.17-9.78-1.35-3.34-2.59-6.36-3.7-9.06-1.11-2.7-1.83-4.37-2.15-5.01h-1.91c-1.27,3.18-2.78,6.76-4.53,10.73-1.75,3.98-3.38,7.83-4.89,11.56-1.51,3.74-2.82,6.72-3.93,8.94l-17.41,37.2Z"/>
    <path class="cls-2" d="m292.18,488.72v-163.81h37.91l87.75,82.26c1.75,1.43,3.93,3.5,6.56,6.2,2.62,2.7,5.36,5.53,8.23,8.47,2.86,2.94,5.32,5.53,7.39,7.75h1.19c-.16-3.18,0-20.66,0-23.84v-80.83h39.34v163.81h-37.2l-87.03-82.26c-4.14-3.81-8.43-8.03-12.88-12.64-4.45-4.61-8.03-8.35-10.73-11.21h-1.91c.16,2.07.32,5.57.48,10.49.16,4.93.24,10.49.24,16.69v78.93h-39.34Z"/>
    <path class="cls-2" d="m604.54,488.72v-129h-72.25v-34.81h185.27v34.81h-72.01v129h-41.01Z"/>
  </g>
  <path class="cls-1" d="m682.36,40.43c-107.81-89.29-182.82-9.63-224.76,37.79-75.69-54.2-153.28-90.91-247.4-9.36-.7-1.31-37.43-67.43-86.39-68.12-69.83,0-133.61,136.98-122.56,201.14,7.8,45.3,52.92,81.13,105.24,40.51,22.02-17.1,84.69-95.14,97.95-109.87,127.97,172.93,221.88,45.41,259.25,1.71,59.07,45.77,157.13,142.18,228.74,123.21,80.16-21.23,71.51-149.44-10.08-217.02ZM81.24,209.88c-29.03,22.54-37.6-4.53-39.4-14.98-8.39-48.69,47.52-150.01,81.2-150.01,23.96,0,54.41,49.1,57.19,53.15-16.1,17.26-81.3,98.11-98.99,111.84Zm152.53-106.95c69-63.43,125.26-44.8,196.84,6.63-51.32,59.89-103.11,123.41-196.84-6.63Zm448.12,114.71c-44.83,13.79-135.58-71.59-191.16-114.56,33.52-37.28,62.53-62.08,96.08-62.08,89.74,0,164.12,155.41,95.09,176.64Z"/>
</svg>