
<svg viewBox="2.1012 111.614 745.7552 260.125" width="745.7552" height="260.125" xmlns="http://www.w3.org/2000/svg">
<defs>
    <style>
        .cls-1 {
        fill: #06aff6;
        }

        .cls-2 {
        fill: #0d0d0d;
        }
    </style>
</defs>
<path class="cls-1" d="M 682.187 152.046 C 574.737 62.756 499.977 142.416 458.177 189.836 C 382.739 135.636 305.408 98.926 211.602 180.476 C 210.905 179.166 174.297 113.046 125.501 112.356 C 55.904 112.356 -7.663 249.336 3.35 313.496 C 11.124 358.796 56.093 394.626 108.239 354.006 C 130.185 336.906 192.646 258.866 205.862 244.136 C 333.405 417.066 427.001 289.546 464.247 245.846 C 523.119 291.616 620.852 388.026 692.223 369.056 C 772.116 347.826 763.495 219.616 682.177 152.036 L 682.187 152.046 Z M 83.073 321.496 C 54.14 344.036 45.598 316.966 43.804 306.516 C 35.442 257.826 91.166 156.506 124.733 156.506 C 148.613 156.506 178.962 205.606 181.733 209.656 C 165.686 226.916 100.704 307.766 83.073 321.496 Z M 235.094 214.546 C 303.864 151.116 359.936 169.746 431.277 221.176 C 380.128 281.066 328.511 344.586 235.094 214.546 Z M 681.718 329.256 C 637.038 343.046 546.591 257.666 491.196 214.696 C 524.605 177.416 553.518 152.616 586.956 152.616 C 676.396 152.616 750.528 308.026 681.728 329.256 L 681.718 329.256 Z" style="" transform="matrix(0.9999999999999999, 0, 0, 0.9999999999999999, -1.4210854715202004e-14, 0)"/>
</svg>
